<svg class="masthead__large--logo" itemprop="logo" xmlns="http://www.w3.org/2000/svg" viewBox="0 0 100 117"><title>Parts of Four logo</title><path fill="#bd002a" d="M37.9 107.6v-1.8c0-.3.1-.6.1-.8l9.7-34.4c.1-.4.3-.6.8-.6h2.1c.4 0 .7.3.6.8l-9.7 34.1v.1H51c.3 0 .4-.1.4-.4V90.7c0-.4.3-.7.7-.7h2.1c.4 0 .7.3.7.7v13.9c0 .3.1.4.4.4h3.9c.4 0 .7.3.7.7v1.9c0 .4-.3.7-.7.7h-3.9c-.3 0-.4.1-.4.4v7.6c0 .4-.3.7-.7.7h-2.1c-.4 0-.7-.3-.7-.7v-7.6c0-.3-.1-.4-.4-.4H38.6c-.4 0-.7-.3-.7-.7zM0 56.8h100v3.3H0zM44 47c-.4 0-.7-.3-.7-.7V.7c0-.4.3-.7.7-.7h6.8c8.2 0 12 3.8 12 13.6 0 9.7-3.9 13.7-12 13.7h-3.5c-.3 0-.4.1-.4.4v18.6c0 .4-.3.7-.7.7H44zm15.2-33.4c0-7.5-2.3-10.2-8.4-10.2h-3.5c-.3 0-.4.1-.4.4v19.7c0 .3.1.4.4.4h3.5c6.1 0 8.4-2.8 8.4-10.3z"></path></svg>